<svg width="61" height="61" viewBox="0 0 61 61" fill="none" xmlns="http://www.w3.org/2000/svg">
<path d="M57.4671 48.2663L34.3888 25.1879C36.7526 19.2404 35.5326 12.2254 30.7288 7.39628C24.883 1.55045 15.7838 1.01669 9.30255 5.7442L19.0626 15.5296L15.4534 19.1134L5.7188 9.37878C0.991304 15.8346 1.52505 24.9592 7.37089 30.7796C12.0984 35.5071 18.9863 36.7525 24.883 34.5413L48.0376 57.6959C49.0288 58.6871 50.6301 58.6871 51.6213 57.6959L57.4671 51.85C58.4838 50.8842 58.4838 49.2829 57.4671 48.2663ZM49.8421 52.3329L25.798 28.2888C24.2476 29.4325 22.5192 30.1188 20.7146 30.3729C17.258 30.8813 13.6234 29.8392 10.9801 27.1959C8.56547 24.8067 7.44714 21.6042 7.62505 18.4525L15.4788 26.3063L26.2555 15.5296L18.4017 7.67586C21.5534 7.49795 24.7305 8.61628 27.1451 11.0054C29.8901 13.7504 30.9321 17.5375 30.2967 21.0704C29.9917 22.875 29.2292 24.5525 28.0601 26.0521L52.0788 50.0709L49.8421 52.3329Z" fill="#444444"/>
</svg>
