<svg width="47" height="47" viewBox="0 0 47 47" fill="none" xmlns="http://www.w3.org/2000/svg">
<g clip-path="url(#clip0_229_5)">
<path d="M32.4888 14.8441L19.5834 27.7495L12.553 20.7387L9.79175 23.5L19.5834 33.2916L35.2501 17.625L32.4888 14.8441ZM23.5001 3.91663C12.6901 3.91663 3.91675 12.69 3.91675 23.5C3.91675 34.31 12.6901 43.0833 23.5001 43.0833C34.3101 43.0833 43.0834 34.31 43.0834 23.5C43.0834 12.69 34.3101 3.91663 23.5001 3.91663ZM23.5001 39.1666C14.8442 39.1666 7.83341 32.1558 7.83341 23.5C7.83341 14.8441 14.8442 7.83329 23.5001 7.83329C32.1559 7.83329 39.1667 14.8441 39.1667 23.5C39.1667 32.1558 32.1559 39.1666 23.5001 39.1666Z" fill="white"/>
</g>
<defs>
<clipPath id="clip0_229_5">
<rect width="47" height="47" fill="white"/>
</clipPath>
</defs>
</svg>
