<svg width="47" height="47" viewBox="0 0 47 47" fill="current" xmlns="http://www.w3.org/2000/svg">
<path d="M23.5001 43.0833C12.7097 43.0833 3.91675 34.2904 3.91675 23.5C3.91675 12.7095 12.7097 3.91663 23.5001 3.91663C34.2905 3.91663 43.0834 11.8283 43.0834 21.5416C43.0834 28.0237 37.8155 33.2916 31.3334 33.2916H27.8672C27.3188 33.2916 26.888 33.7225 26.888 34.2708C26.888 34.5058 26.9859 34.7212 27.1426 34.917C27.9455 35.8375 28.3959 36.9929 28.3959 38.1875C28.3959 40.89 26.2026 43.0833 23.5001 43.0833ZM23.5001 7.83329C14.8638 7.83329 7.83341 14.8637 7.83341 23.5C7.83341 32.1362 14.8638 39.1666 23.5001 39.1666C24.0484 39.1666 24.4792 38.7358 24.4792 38.1875C24.4792 37.8741 24.3226 37.6391 24.2051 37.502C23.4022 36.6012 22.9713 35.4458 22.9713 34.2708C22.9713 31.5683 25.1647 29.375 27.8672 29.375H31.3334C35.6613 29.375 39.1667 25.8695 39.1667 21.5416C39.1667 13.9825 32.1363 7.83329 23.5001 7.83329Z" fill="current"/>
<path d="M12.7292 25.4584C14.3516 25.4584 15.6667 24.1432 15.6667 22.5209C15.6667 20.8985 14.3516 19.5834 12.7292 19.5834C11.1069 19.5834 9.79175 20.8985 9.79175 22.5209C9.79175 24.1432 11.1069 25.4584 12.7292 25.4584Z" fill="current"/>
<path d="M18.6042 17.625C20.2266 17.625 21.5417 16.3098 21.5417 14.6875C21.5417 13.0652 20.2266 11.75 18.6042 11.75C16.9819 11.75 15.6667 13.0652 15.6667 14.6875C15.6667 16.3098 16.9819 17.625 18.6042 17.625Z" fill="current"/>
<path d="M28.3958 17.625C30.0181 17.625 31.3333 16.3098 31.3333 14.6875C31.3333 13.0652 30.0181 11.75 28.3958 11.75C26.7734 11.75 25.4583 13.0652 25.4583 14.6875C25.4583 16.3098 26.7734 17.625 28.3958 17.625Z" fill="current"/>
<path d="M34.2708 25.4584C35.8931 25.4584 37.2083 24.1432 37.2083 22.5209C37.2083 20.8985 35.8931 19.5834 34.2708 19.5834C32.6484 19.5834 31.3333 20.8985 31.3333 22.5209C31.3333 24.1432 32.6484 25.4584 34.2708 25.4584Z" fill="current"/>
</svg>
