<svg width="64" height="64" viewBox="0 0 64 64" fill="none" xmlns="http://www.w3.org/2000/svg">
<path d="M51.8134 34.6134C51.9201 33.76 52.0001 32.9067 52.0001 32C52.0001 31.0934 51.9201 30.24 51.8134 29.3867L57.4401 24.9867C57.9467 24.5867 58.0801 23.8667 57.7601 23.28L52.4267 14.0534C52.1067 13.4667 51.3867 13.2534 50.8001 13.4667L44.1601 16.1334C42.7734 15.0667 41.2801 14.1867 39.6534 13.52L38.6401 6.45337C38.5601 5.81337 38.0001 5.33337 37.3334 5.33337H26.6667C26.0001 5.33337 25.4401 5.81337 25.3601 6.45337L24.3467 13.52C22.7201 14.1867 21.2267 15.0934 19.8401 16.1334L13.2001 13.4667C12.5867 13.2267 11.8934 13.4667 11.5734 14.0534L6.24006 23.28C5.89339 23.8667 6.05339 24.5867 6.56006 24.9867L12.1867 29.3867C12.0801 30.24 12.0001 31.12 12.0001 32C12.0001 32.88 12.0801 33.76 12.1867 34.6134L6.56006 39.0134C6.05339 39.4134 5.92006 40.1334 6.24006 40.72L11.5734 49.9467C11.8934 50.5334 12.6134 50.7467 13.2001 50.5334L19.8401 47.8667C21.2267 48.9334 22.7201 49.8134 24.3467 50.48L25.3601 57.5467C25.4401 58.1867 26.0001 58.6667 26.6667 58.6667H37.3334C38.0001 58.6667 38.5601 58.1867 38.6401 57.5467L39.6534 50.48C41.2801 49.8134 42.7734 48.9067 44.1601 47.8667L50.8001 50.5334C51.4134 50.7734 52.1067 50.5334 52.4267 49.9467L57.7601 40.72C58.0801 40.1334 57.9467 39.4134 57.4401 39.0134L51.8134 34.6134ZM32.0001 41.3334C26.8534 41.3334 22.6667 37.1467 22.6667 32C22.6667 26.8534 26.8534 22.6667 32.0001 22.6667C37.1467 22.6667 41.3334 26.8534 41.3334 32C41.3334 37.1467 37.1467 41.3334 32.0001 41.3334Z" fill="#444444"/>
</svg>
