<svg width="64" height="64" viewBox="0 0 64 64" fill="none" xmlns="http://www.w3.org/2000/svg">
<path d="M41.44 14.7734L36.72 19.4667L32 14.7734L27.28 19.4667L22.56 14.7734L32 5.33337L41.44 14.7734ZM49.2267 41.44L44.5334 36.72L49.2267 32L44.5334 27.28L49.2267 22.56L58.6667 32L49.2267 41.44ZM22.56 49.2267L27.28 44.5334L32 49.2267L36.72 44.5334L41.44 49.2267L32 58.6667L22.56 49.2267ZM14.7734 22.56L19.4667 27.28L14.7734 32L19.4667 36.72L14.7734 41.44L5.33337 32L14.7734 22.56Z" fill="#444444"/>
<path d="M32 40C36.4183 40 40 36.4183 40 32C40 27.5817 36.4183 24 32 24C27.5817 24 24 27.5817 24 32C24 36.4183 27.5817 40 32 40Z" fill="#444444"/>
</svg>
